<svg xmlns="http://www.w3.org/2000/svg" width="960" height="480">
<style>text{font-family:Menlo,Monaco,monospace;font-size:11px;fill:#333} .title{font-size:16px;font-weight:700;fill:#111} .axis{stroke:#888;stroke-width:1} .grid{stroke:#ddd;stroke-width:1;stroke-dasharray:4,4} .tick{font-size:10px;fill:#666} .ref{stroke:#bbb;stroke-width:1;stroke-dasharray:6,3}</style>
<text class="title" x="70" y="28">Bridge FP16 vs Full FP16</text>
<line class="grid" x1="96.3" y1="50" x2="96.3" y2="430"/>
<text class="tick" x="96.3" y="446" text-anchor="middle">0.5200</text>
<line class="grid" x1="410.2" y1="50" x2="410.2" y2="430"/>
<text class="tick" x="410.2" y="446" text-anchor="middle">0.5400</text>
<line class="grid" x1="724.0" y1="50" x2="724.0" y2="430"/>
<text class="tick" x="724.0" y="446" text-anchor="middle">0.5600</text>
<line class="grid" x1="70" y1="346.2" x2="920" y2="346.2"/>
<text class="tick" x="64" y="350.2" text-anchor="end">0.5400</text>
<line class="grid" x1="70" y1="202.9" x2="920" y2="202.9"/>
<text class="tick" x="64" y="206.9" text-anchor="end">0.5600</text>
<line class="grid" x1="70" y1="59.5" x2="920" y2="59.5"/>
<text class="tick" x="64" y="63.5" text-anchor="end">0.5800</text>
<line class="axis" x1="70" y1="430" x2="920" y2="430"/>
<line class="axis" x1="70" y1="50" x2="70" y2="430"/>
<line class="ref" x1="226.7" y1="430.0" x2="920.0" y2="113.3"/>
<circle fill="#17becf" opacity="0.8" cx="754.69" cy="118.12" r="5"/>
<text x="761.69" y="112.12">conker4b_tandem_seq256_step…</text>
<circle fill="#17becf" opacity="0.8" cx="757.83" cy="119.67" r="5"/>
<text x="764.83" y="98.12">conker4b_tandem_seq256_step…</text>
<circle fill="#17becf" opacity="0.8" cx="743.98" cy="125.13" r="5"/>
<text x="750.98" y="84.12">conker4b_tandem_seq256_step…</text>
<circle fill="#e377c2" opacity="0.8" cx="684.04" cy="149.14" r="5"/>
<text x="691.04" y="143.14">conker4b_tandem_seq256_step…</text>
<circle fill="#ffbb78" opacity="0.8" cx="424.52" cy="268.70" r="5"/>
<text x="431.52" y="262.70">conker4b_tandem_seq256_step…</text>
<circle fill="#ffbb78" opacity="0.8" cx="406.53" cy="273.54" r="5"/>
<text x="413.53" y="248.70">conker4b_tandem_seq256_step…</text>
<circle fill="#ffbb78" opacity="0.8" cx="396.67" cy="275.35" r="5"/>
<text x="403.67" y="234.70">conker4b_tandem_seq256_step…</text>
<circle fill="#98df8a" opacity="0.8" cx="318.77" cy="320.68" r="5"/>
<text x="325.77" y="314.68">conker4b_tandem_seq256_step…</text>
<circle fill="#17becf" opacity="0.8" cx="920.00" cy="51.90" r="5"/>
<text x="927.00" y="45.90">conker4b_tandem_seq512_step…</text>
<circle fill="#17becf" opacity="0.8" cx="917.11" cy="50.00" r="5"/>
<text x="924.11" y="31.90">conker4b_tandem_seq512_step…</text>
<circle fill="#8c564b" opacity="0.8" cx="70.00" cy="430.00" r="5"/>
<text x="77.00" y="424.00">conker7_bidirectional_exact…</text>
</svg>
