<svg xmlns="http://www.w3.org/2000/svg" width="960" height="480">
<style>text{font-family:Menlo,Monaco,monospace;font-size:12px;fill:#111} .title{font-size:18px;font-weight:700} .axis{stroke:#888;stroke-width:1} .point{fill:#c23b22;opacity:0.8}</style>
<text class="title" x="70" y="28">Bridge FP16 vs Full FP16</text>
<line class="axis" x1="70" y1="430" x2="920" y2="430"/>
<line class="axis" x1="70" y1="50" x2="70" y2="430"/>
<circle class="point" cx="754.69" cy="118.12" r="4"/>
<text x="760.69" y="112.12">conker4b_tandem_seq256_steps1000_lr5e4</text>
<circle class="point" cx="757.83" cy="119.67" r="4"/>
<text x="763.83" y="113.67">conker4b_tandem_seq256_steps1000_lr5e4</text>
<circle class="point" cx="743.98" cy="125.13" r="4"/>
<text x="749.98" y="119.13">conker4b_tandem_seq256_steps1000_lr5e4</text>
<circle class="point" cx="684.04" cy="149.14" r="4"/>
<text x="690.04" y="143.14">conker4b_tandem_seq256_steps1200_lr5e4</text>
<circle class="point" cx="424.52" cy="268.70" r="4"/>
<text x="430.52" y="262.70">conker4b_tandem_seq256_steps1500_lr5e4</text>
<circle class="point" cx="406.53" cy="273.54" r="4"/>
<text x="412.53" y="267.54">conker4b_tandem_seq256_steps1500_lr5e4</text>
<circle class="point" cx="396.67" cy="275.35" r="4"/>
<text x="402.67" y="269.35">conker4b_tandem_seq256_steps1500_lr5e4</text>
<circle class="point" cx="318.77" cy="320.68" r="4"/>
<text x="324.77" y="314.68">conker4b_tandem_seq256_steps1800_lr5e4</text>
<circle class="point" cx="920.00" cy="51.90" r="4"/>
<text x="926.00" y="45.90">conker4b_tandem_seq512_steps1000_bs8_lr5e4</text>
<circle class="point" cx="917.11" cy="50.00" r="4"/>
<text x="923.11" y="44.00">conker4b_tandem_seq512_steps1000_bs8_lr5e4</text>
<circle class="point" cx="70.00" cy="430.00" r="4"/>
<text x="76.00" y="424.00">conker7_bidirectional_exact23_tw01_warmstart_tandem1500_seq256_steps1000</text>
<text x="70" y="468">bridge_fp16: min 0.518321, max 0.572495</text>
<text x="920" y="468" text-anchor="end">full_fp16: min 0.528307, max 0.581328</text>
</svg>
