<svg xmlns="http://www.w3.org/2000/svg" width="960" height="480">
<style>text{font-family:Menlo,Monaco,monospace;font-size:11px;fill:#333} .title{font-size:16px;font-weight:700;fill:#111} .axis{stroke:#888;stroke-width:1} .grid{stroke:#ddd;stroke-width:1;stroke-dasharray:4,4} .tick{font-size:10px;fill:#666} .val{font-size:10px;fill:#333}</style>
<text class="title" x="260" y="28">Conker-7 Bridge FP16 Rows</text>
<line class="grid" x1="260.0" y1="50" x2="260.0" y2="440"/>
<text class="tick" x="260.0" y="456" text-anchor="middle">0.0000</text>
<line class="grid" x1="443.2" y1="50" x2="443.2" y2="440"/>
<text class="tick" x="443.2" y="456" text-anchor="middle">0.2000</text>
<line class="grid" x1="626.4" y1="50" x2="626.4" y2="440"/>
<text class="tick" x="626.4" y="456" text-anchor="middle">0.4000</text>
<line class="grid" x1="809.6" y1="50" x2="809.6" y2="440"/>
<text class="tick" x="809.6" y="456" text-anchor="middle">0.6000</text>
<line class="axis" x1="260" y1="440" x2="880" y2="440"/>
<text x="252" y="65" text-anchor="end">conker7_bidirectional_exact23_tw01_…</text>
<rect fill="#e377c2" x="260" y="50" width="529.15" height="17" rx="2"/>
<text class="val" x="795.15" y="65">0.5776</text>
<text x="252" y="88" text-anchor="end">conker7_bidirectional_exact23_tw01_…</text>
<rect fill="#ff7f0e" x="260" y="73" width="470.95" height="17" rx="2"/>
<text class="val" x="736.95" y="88">0.5141</text>
<text x="252" y="111" text-anchor="end">conker7_bidirectional_exact23_tw01_…</text>
<rect fill="#98df8a" x="260" y="96" width="519.01" height="17" rx="2"/>
<text class="val" x="785.01" y="111">0.5666</text>
<text x="252" y="134" text-anchor="end">conker7_bidirectional_exact23_tw01_…</text>
<rect fill="#e377c2" x="260" y="119" width="469.23" height="17" rx="2"/>
<text class="val" x="735.23" y="134">0.5122</text>
<text x="252" y="157" text-anchor="end">conker7_bidirectional_exact23_tw01_…</text>
<rect fill="#8c564b" x="260" y="142" width="474.82" height="17" rx="2"/>
<text class="val" x="740.82" y="157">0.5183</text>
<text x="252" y="180" text-anchor="end">conker7_bidirectional_exact23_tw01_…</text>
<rect fill="#8c564b" x="260" y="165" width="474.82" height="17" rx="2"/>
<text class="val" x="740.82" y="180">0.5183</text>
<text x="252" y="203" text-anchor="end">conker7_bidirectional_exact23_tw01_…</text>
<rect fill="#8c564b" x="260" y="188" width="474.82" height="17" rx="2"/>
<text class="val" x="740.82" y="203">0.5183</text>
<text x="252" y="226" text-anchor="end">conker7_bidirectional_exact23_tw01_…</text>
<rect fill="#8c564b" x="260" y="211" width="474.82" height="17" rx="2"/>
<text class="val" x="740.82" y="226">0.5183</text>
<text x="252" y="249" text-anchor="end">conker7_bidirectional_exact23_tw01_…</text>
<rect fill="#17becf" x="260" y="234" width="490.74" height="17" rx="2"/>
<text class="val" x="756.74" y="249">0.5357</text>
<text x="252" y="272" text-anchor="end">conker7_bidirectional_exact23_tw0p0…</text>
<rect fill="#ff7f0e" x="260" y="257" width="466.93" height="17" rx="2"/>
<text class="val" x="732.93" y="272">0.5097</text>
<text x="252" y="295" text-anchor="end">conker7_bidirectional_exact23_tw0p0…</text>
<rect fill="#2ca02c" x="260" y="280" width="469.54" height="17" rx="2"/>
<text class="val" x="735.54" y="295">0.5126</text>
<text x="252" y="318" text-anchor="end">conker7_bidirectional_exact23_tw0p1…</text>
<rect fill="#aec7e8" x="260" y="303" width="478.40" height="17" rx="2"/>
<text class="val" x="744.40" y="318">0.5222</text>
<text x="252" y="341" text-anchor="end">conker7_future_exact23_seq256_steps…</text>
<rect fill="#2ca02c" x="260" y="326" width="565.06" height="17" rx="2"/>
<text class="val" x="831.06" y="341">0.6168</text>
<text x="252" y="364" text-anchor="end">conker7_future_exact23_seq256_steps…</text>
<rect fill="#d62728" x="260" y="349" width="620.00" height="17" rx="2"/>
<text class="val" x="886.00" y="364">0.6768</text>
<text x="252" y="387" text-anchor="end">conker7_future_exact23_tw01_seq256_…</text>
<rect fill="#c23b22" x="260" y="372" width="530.58" height="17" rx="2"/>
<text class="val" x="796.58" y="387">0.5792</text>
<text x="252" y="410" text-anchor="end">conker7_future_exact23_tw025_seq256…</text>
<rect fill="#e377c2" x="260" y="395" width="544.63" height="17" rx="2"/>
<text class="val" x="810.63" y="410">0.5945</text>
<text x="252" y="433" text-anchor="end">conker7_future_exact3only_tw01_seq2…</text>
<rect fill="#9467bd" x="260" y="418" width="533.07" height="17" rx="2"/>
<text class="val" x="799.07" y="433">0.5819</text>
</svg>
